<svg width="72" height="72" viewBox="0 0 72 72" fill="none" xmlns="http://www.w3.org/2000/svg"><path d="M1.37044 36c0 18.9284 15.26376 34.3577 34.12956 34.626v.0044h.5c19.0953 0 34.6296-15.5343 34.6296-34.6296S55.0961 1.37122 36 1.37122C16.9039 1.37122 1.37044 16.9046 1.37044 36zM.5 36C.5 16.4258 16.4258.5 36 .5 55.5742.5 71.5 16.4258 71.5 36c0 19.5742-15.9258 35.5-35.5 35.5C16.4258 71.5.5 55.5742.5 36z" fill="#F1F2F2" stroke="url(#paint0_linear_1129_1144)"/><g clip-path="url(#clip0_1129_1144)" stroke-width="2" stroke-miterlimit="10"><path d="M20.9583 28.0834H17" stroke="url(#paint1_linear_1129_1144)"/><path d="M20.9583 32.0416H17" stroke="url(#paint2_linear_1129_1144)"/><path d="M20.9583 36H17" stroke="url(#paint3_linear_1129_1144)"/><path d="M20.9583 39.9584H17" stroke="url(#paint4_linear_1129_1144)"/><path d="M20.9583 43.9166H17" stroke="url(#paint5_linear_1129_1144)"/><path d="M55.0001 28.0834h-3.9584" stroke="url(#paint6_linear_1129_1144)"/><path d="M55.0001 32.0416h-3.9584" stroke="url(#paint7_linear_1129_1144)"/><path d="M55.0001 36h-3.9584" stroke="url(#paint8_linear_1129_1144)"/><path d="M55.0001 39.9584h-3.9584" stroke="url(#paint9_linear_1129_1144)"/><path d="M55.0001 43.9166h-3.9584" stroke="url(#paint10_linear_1129_1144)"/><path d="M43.9167 20.9583V17" stroke="url(#paint11_linear_1129_1144)"/><path d="M39.9583 20.9583V17" stroke="url(#paint12_linear_1129_1144)"/><path d="M36 20.9583V17" stroke="url(#paint13_linear_1129_1144)"/><path d="M32.0417 20.9583V17" stroke="url(#paint14_linear_1129_1144)"/><path d="M28.0833 20.9583V17" stroke="url(#paint15_linear_1129_1144)"/><path d="M43.9167 55v-3.9584" stroke="url(#paint16_linear_1129_1144)"/><path d="M39.9583 55v-3.9584" stroke="url(#paint17_linear_1129_1144)"/><path d="M36 55v-3.9584" stroke="url(#paint18_linear_1129_1144)"/><path d="M32.0417 55v-3.9584" stroke="url(#paint19_linear_1129_1144)"/><path d="M28.0833 55v-3.9584" stroke="url(#paint20_linear_1129_1144)"/><path d="M40.75 31.25h-9.5v9.5h9.5v-9.5z" stroke="url(#paint21_linear_1129_1144)"/><path d="M28.0833 32.0416v1.5834" stroke="url(#paint22_linear_1129_1144)"/><path d="M28.0833 38.375v1.5833" stroke="url(#paint23_linear_1129_1144)"/><path d="M28.0833 35.2084v1.5833" stroke="url(#paint24_linear_1129_1144)"/><path d="M43.9167 32.0416v1.5834" stroke="url(#paint25_linear_1129_1144)"/><path d="M43.9167 38.375v1.5833" stroke="url(#paint26_linear_1129_1144)"/><path d="M43.9167 35.2084v1.5833" stroke="url(#paint27_linear_1129_1144)"/><path d="M48.6666 23.3334H23.3333v25.3333h25.3333V23.3334z" stroke="url(#paint28_linear_1129_1144)"/><path d="M32.0417 28.0834h1.5834" stroke="url(#paint29_linear_1129_1144)"/><path d="M35.2083 28.0834h1.5833" stroke="url(#paint30_linear_1129_1144)"/><path d="M38.375 28.0834h1.5833" stroke="url(#paint31_linear_1129_1144)"/><path d="M32.0417 43.9166h1.5834" stroke="url(#paint32_linear_1129_1144)"/><path d="M35.2083 43.9166h1.5833" stroke="url(#paint33_linear_1129_1144)"/><path d="M38.375 43.9166h1.5833" stroke="url(#paint34_linear_1129_1144)"/></g><defs><linearGradient id="paint0_linear_1129_1144" x1="0" y1="36.313" x2="61.6667" y2="-14.5" gradientUnits="userSpaceOnUse"><stop offset=".145833" stop-color="#CB9636"/><stop offset=".265625" stop-color="#CFA855"/><stop offset=".427083" stop-color="#FCE4A7"/><stop offset=".578125" stop-color="#F0D592"/><stop offset=".713542" stop-color="#CFA855"/><stop offset=".828125" stop-color="#CB9636"/></linearGradient><linearGradient id="paint1_linear_1129_1144" x1="16.9058" y1="29.0834" x2="20.7541" y2="29.0834" gradientUnits="userSpaceOnUse"><stop stop-color="#D2B15E"/><stop offset="1" stop-color="#CB9636"/></linearGradient><linearGradient id="paint2_linear_1129_1144" x1="16.9058" y1="33.0416" x2="20.7541" y2="33.0416" gradientUnits="userSpaceOnUse"><stop stop-color="#D2B15E"/><stop offset="1" stop-color="#CB9636"/></linearGradient><linearGradient id="paint3_linear_1129_1144" x1="16.9058" y1="37" x2="20.7541" y2="37" gradientUnits="userSpaceOnUse"><stop stop-color="#D2B15E"/><stop offset="1" stop-color="#CB9636"/></linearGradient><linearGradient id="paint4_linear_1129_1144" x1="16.9058" y1="40.9584" x2="20.7541" y2="40.9584" gradientUnits="userSpaceOnUse"><stop stop-color="#D2B15E"/><stop offset="1" stop-color="#CB9636"/></linearGradient><linearGradient id="paint5_linear_1129_1144" x1="16.9058" y1="44.9166" x2="20.7541" y2="44.9166" gradientUnits="userSpaceOnUse"><stop stop-color="#D2B15E"/><stop offset="1" stop-color="#CB9636"/></linearGradient><linearGradient id="paint6_linear_1129_1144" x1="50.9475" y1="29.0834" x2="54.7959" y2="29.0834" gradientUnits="userSpaceOnUse"><stop stop-color="#D2B15E"/><stop offset="1" stop-color="#CB9636"/></linearGradient><linearGradient id="paint7_linear_1129_1144" x1="50.9475" y1="33.0416" x2="54.7959" y2="33.0416" gradientUnits="userSpaceOnUse"><stop stop-color="#D2B15E"/><stop offset="1" stop-color="#CB9636"/></linearGradient><linearGradient id="paint8_linear_1129_1144" x1="50.9475" y1="37" x2="54.7959" y2="37" gradientUnits="userSpaceOnUse"><stop stop-color="#D2B15E"/><stop offset="1" stop-color="#CB9636"/></linearGradient><linearGradient id="paint9_linear_1129_1144" x1="50.9475" y1="40.9584" x2="54.7959" y2="40.9584" gradientUnits="userSpaceOnUse"><stop stop-color="#D2B15E"/><stop offset="1" stop-color="#CB9636"/></linearGradient><linearGradient id="paint10_linear_1129_1144" x1="50.9475" y1="44.9166" x2="54.7959" y2="44.9166" gradientUnits="userSpaceOnUse"><stop stop-color="#D2B15E"/><stop offset="1" stop-color="#CB9636"/></linearGradient><linearGradient id="paint11_linear_1129_1144" x1="43.8929" y1="20.9583" x2="44.8652" y2="20.9583" gradientUnits="userSpaceOnUse"><stop stop-color="#D2B15E"/><stop offset="1" stop-color="#CB9636"/></linearGradient><linearGradient id="paint12_linear_1129_1144" x1="39.9344" y1="20.9583" x2="40.9067" y2="20.9583" gradientUnits="userSpaceOnUse"><stop stop-color="#D2B15E"/><stop offset="1" stop-color="#CB9636"/></linearGradient><linearGradient id="paint13_linear_1129_1144" x1="35.9762" y1="20.9583" x2="36.9484" y2="20.9583" gradientUnits="userSpaceOnUse"><stop stop-color="#D2B15E"/><stop offset="1" stop-color="#CB9636"/></linearGradient><linearGradient id="paint14_linear_1129_1144" x1="32.0179" y1="20.9583" x2="32.9902" y2="20.9583" gradientUnits="userSpaceOnUse"><stop stop-color="#D2B15E"/><stop offset="1" stop-color="#CB9636"/></linearGradient><linearGradient id="paint15_linear_1129_1144" x1="28.0594" y1="20.9583" x2="29.0317" y2="20.9583" gradientUnits="userSpaceOnUse"><stop stop-color="#D2B15E"/><stop offset="1" stop-color="#CB9636"/></linearGradient><linearGradient id="paint16_linear_1129_1144" x1="43.8929" y1="55" x2="44.8652" y2="55" gradientUnits="userSpaceOnUse"><stop stop-color="#D2B15E"/><stop offset="1" stop-color="#CB9636"/></linearGradient><linearGradient id="paint17_linear_1129_1144" x1="39.9344" y1="55" x2="40.9067" y2="55" gradientUnits="userSpaceOnUse"><stop stop-color="#D2B15E"/><stop offset="1" stop-color="#CB9636"/></linearGradient><linearGradient id="paint18_linear_1129_1144" x1="35.9762" y1="55" x2="36.9484" y2="55" gradientUnits="userSpaceOnUse"><stop stop-color="#D2B15E"/><stop offset="1" stop-color="#CB9636"/></linearGradient><linearGradient id="paint19_linear_1129_1144" x1="32.0179" y1="55" x2="32.9902" y2="55" gradientUnits="userSpaceOnUse"><stop stop-color="#D2B15E"/><stop offset="1" stop-color="#CB9636"/></linearGradient><linearGradient id="paint20_linear_1129_1144" x1="28.0594" y1="55" x2="29.0317" y2="55" gradientUnits="userSpaceOnUse"><stop stop-color="#D2B15E"/><stop offset="1" stop-color="#CB9636"/></linearGradient><linearGradient id="paint21_linear_1129_1144" x1="31.0238" y1="40.75" x2="40.2599" y2="40.75" gradientUnits="userSpaceOnUse"><stop stop-color="#D2B15E"/><stop offset="1" stop-color="#CB9636"/></linearGradient><linearGradient id="paint22_linear_1129_1144" x1="28.0594" y1="33.625" x2="29.0317" y2="33.625" gradientUnits="userSpaceOnUse"><stop stop-color="#D2B15E"/><stop offset="1" stop-color="#CB9636"/></linearGradient><linearGradient id="paint23_linear_1129_1144" x1="28.0594" y1="39.9583" x2="29.0317" y2="39.9583" gradientUnits="userSpaceOnUse"><stop stop-color="#D2B15E"/><stop offset="1" stop-color="#CB9636"/></linearGradient><linearGradient id="paint24_linear_1129_1144" x1="28.0594" y1="36.7917" x2="29.0317" y2="36.7917" gradientUnits="userSpaceOnUse"><stop stop-color="#D2B15E"/><stop offset="1" stop-color="#CB9636"/></linearGradient><linearGradient id="paint25_linear_1129_1144" x1="43.8929" y1="33.625" x2="44.8652" y2="33.625" gradientUnits="userSpaceOnUse"><stop stop-color="#D2B15E"/><stop offset="1" stop-color="#CB9636"/></linearGradient><linearGradient id="paint26_linear_1129_1144" x1="43.8929" y1="39.9583" x2="44.8652" y2="39.9583" gradientUnits="userSpaceOnUse"><stop stop-color="#D2B15E"/><stop offset="1" stop-color="#CB9636"/></linearGradient><linearGradient id="paint27_linear_1129_1144" x1="43.8929" y1="36.7917" x2="44.8652" y2="36.7917" gradientUnits="userSpaceOnUse"><stop stop-color="#D2B15E"/><stop offset="1" stop-color="#CB9636"/></linearGradient><linearGradient id="paint28_linear_1129_1144" x1="22.7301" y1="48.6667" x2="47.3597" y2="48.6667" gradientUnits="userSpaceOnUse"><stop stop-color="#D2B15E"/><stop offset="1" stop-color="#CB9636"/></linearGradient><linearGradient id="paint29_linear_1129_1144" x1="32.004" y1="29.0834" x2="33.5434" y2="29.0834" gradientUnits="userSpaceOnUse"><stop stop-color="#D2B15E"/><stop offset="1" stop-color="#CB9636"/></linearGradient><linearGradient id="paint30_linear_1129_1144" x1="35.1706" y1="29.0834" x2="36.7099" y2="29.0834" gradientUnits="userSpaceOnUse"><stop stop-color="#D2B15E"/><stop offset="1" stop-color="#CB9636"/></linearGradient><linearGradient id="paint31_linear_1129_1144" x1="38.3373" y1="29.0834" x2="39.8767" y2="29.0834" gradientUnits="userSpaceOnUse"><stop stop-color="#D2B15E"/><stop offset="1" stop-color="#CB9636"/></linearGradient><linearGradient id="paint32_linear_1129_1144" x1="32.004" y1="44.9166" x2="33.5434" y2="44.9166" gradientUnits="userSpaceOnUse"><stop stop-color="#D2B15E"/><stop offset="1" stop-color="#CB9636"/></linearGradient><linearGradient id="paint33_linear_1129_1144" x1="35.1706" y1="44.9166" x2="36.7099" y2="44.9166" gradientUnits="userSpaceOnUse"><stop stop-color="#D2B15E"/><stop offset="1" stop-color="#CB9636"/></linearGradient><linearGradient id="paint34_linear_1129_1144" x1="38.3373" y1="44.9166" x2="39.8767" y2="44.9166" gradientUnits="userSpaceOnUse"><stop stop-color="#D2B15E"/><stop offset="1" stop-color="#CB9636"/></linearGradient><clipPath id="clip0_1129_1144"><path fill="#fff" transform="translate(17 17)" d="M0 0h38v38H0z"/></clipPath></defs></svg>