<svg width="82" height="82" viewBox="0 0 82 82" fill="none" xmlns="http://www.w3.org/2000/svg"><circle cx="41" cy="41" r="41" fill="#F1F9F5"/><path d="M49.9375 33.9v-1.65c0-4.5491-3.7851-8.25-8.4375-8.25s-8.4375 3.7009-8.4375 8.25v4.95H31.375C29.5137 37.2 28 38.68 28 40.5v13.2c0 1.8199 1.5137 3.3 3.375 3.3h20.25C53.4863 57 55 55.5199 55 53.7V40.5c0-1.82-1.5137-3.3-3.375-3.3H36.4375v-4.95c0-2.7291 2.2714-4.95 5.0625-4.95s5.0625 2.2209 5.0625 4.95v1.65h3.375zm1.6875 6.6l.0034 13.2H31.375V40.5h20.25z" fill="#6ABC44"/></svg>