<svg width="82" height="82" viewBox="0 0 82 82" fill="none" xmlns="http://www.w3.org/2000/svg"><circle cx="41" cy="41" r="41" fill="#F1F9F5"/><path d="M57.1086 49.6698c1.5153-2.757 2.2815-5.863 2.2224-9.0084-.0592-3.1455-.9417-6.2204-2.5597-8.9185-1.6179-2.698-3.9147-4.9249-6.6614-6.4587-2.7468-1.5338-5.8476-2.3209-8.9933-2.2829-3.1457.038-6.2266.8998-8.9355 2.4996-2.7088 1.5997-4.9511 3.8814-6.5034 6.6178-1.5522 2.7364-2.3602 5.8318-2.3433 8.9777.0169 3.146.8579 6.2325 2.4394 8.9521M41.334 44l10-7" stroke="#6ABC44" stroke-width="4" stroke-linecap="round"/><circle cx="41.334" cy="44" r="3" fill="#6ABC44"/></svg>