<svg width="82" height="82" viewBox="0 0 82 82" fill="none" xmlns="http://www.w3.org/2000/svg"><circle cx="41" cy="41" r="41" fill="#F1F9F5"/><path d="M49.8183 56.6115c1.2356 0 2.4206-.4908 3.2943-1.3645.8737-.8737 1.3645-2.0587 1.3645-3.2943V28.6588c0-1.2356-.4908-2.4206-1.3645-3.2943C52.2389 24.4908 51.0539 24 49.8183 24H31.1832c-1.2356 0-2.4206.4908-3.2943 1.3645-.8737.8737-1.3645 2.0587-1.3645 3.2943V55.247" stroke="#6ABC44" stroke-width="4" stroke-linecap="round" stroke-linejoin="round"/><path d="M49.1247 56.6115l-8.4907-4.5377c-.744-.3978-1.366-.9901-1.7996-1.7138-.4337-.7237-.6626-1.5516-.6625-2.3952V32.6467c-.0001-.8437.2288-1.6715.6625-2.3952.4336-.7237 1.0556-1.3161 1.7996-1.7138L49.1247 24" stroke="#6ABC44" stroke-width="4" stroke-linecap="round" stroke-linejoin="round"/><path d="M42.8304 42.6353c1.2865 0 2.3294-1.0429 2.3294-2.3293 0-1.2865-1.0429-2.3294-2.3294-2.3294-1.2865 0-2.3294 1.0429-2.3294 2.3294 0 1.2864 1.0429 2.3293 2.3294 2.3293z" fill="#6ABC44"/></svg>