<svg width="116" height="98" viewBox="0 0 116 98" fill="none" xmlns="http://www.w3.org/2000/svg"><path d="M70.0473 98.0002L24.9236 49.0675 70.0473.000014 115.171 49.0675 70.0473 98.0002z" fill="#DCE5E4"/><path d="M45.1234 98.0002L-.000205 49.0675 45.1234.000014 90.2471 49.0675 45.1234 98.0002z" fill="#F1F9F5"/><path d="M45.0348 36.1897c-3.0364.0006-6.0045.9014-8.5291 2.5884-2.5246 1.687-4.4925 4.0845-5.6549 6.8896-1.1624 2.805-1.4672 5.8917-.8759 8.87.5913 2.9782 2.0523 5.7143 4.1982 7.8625.3924.3933.6126.9263.6121 1.4819-.0005.5556-.2217 1.0882-.6149 1.4807-.3933.3925-.9263.6127-1.4819.6121-.5556-.0005-1.0882-.2217-1.4807-.6149-2.7317-2.7342-4.5914-6.2169-5.3442-10.0079-.7527-3.791-.3646-7.72 1.1153-11.2904 1.4799-3.5705 3.9851-6.622 7.1989-8.7689C37.3916 33.1459 41.1698 32 45.0348 32c3.865 0 7.6432 1.1459 10.857 3.2928 3.2139 2.1469 5.7191 5.1984 7.199 8.7689 1.4798 3.5704 1.8679 7.4994 1.1152 11.2904-.7527 3.791-2.6125 7.2737-5.3442 10.0079-.1931.2001-.4241.3597-.6795.4696-.2555.1099-.5302.1678-.8083.1703-.278.0026-.5538-.0503-.8112-.1555-.2574-.1051-.4913-.2605-.6881-.4571a2.092861 2.092861 0 01-.4577-.6876c-.1054-.2573-.1585-.533-.1562-.8111.0022-.278.0599-.5528.1695-.8084.1096-.2555.2691-.4867.469-.68 2.146-2.1483 3.607-4.8847 4.1983-7.8632.5912-2.9785.2862-6.0655-.8766-8.8706-1.1628-2.8052-3.1311-5.2027-5.6561-6.8895-2.5251-1.6868-5.4935-2.5871-8.5301-2.5872z" fill="#6ABC44"/><path d="M45.035 47.3586c-1.1108 0-2.1761.4413-2.9616 1.2268-.7855.7854-1.2267 1.8508-1.2267 2.9616 0 1.1108.4412 2.1761 1.2267 2.9616.7855.7854 1.8508 1.2267 2.9616 1.2267 1.1108 0 2.1761-.4413 2.9616-1.2267.7855-.7855 1.2267-1.8508 1.2267-2.9616 0-1.1108-.4412-2.1762-1.2267-2.9616-.7855-.7855-1.8508-1.2268-2.9616-1.2268z" fill="#6ABC44"/><path d="M37.3559 51.5466c-.0001-1.2625.3112-2.5056.9062-3.6191.595-1.1135 1.4554-2.0631 2.505-2.7648 1.0496-.7016 2.256-1.1336 3.5124-1.2577 1.2564-.1242 2.5241.0634 3.6907.5461 1.1666.4827 2.1962 1.2456 2.9976 2.2211.8014.9756 1.3499 2.1337 1.5969 3.3718.247 1.2382.1849 2.5181-.1808 3.7265-.3657 1.2084-1.0237 2.308-1.9158 3.2014-.3925.3932-.6127.9262-.6121 1.4818.0005.5556.2217 1.0882.6149 1.4807.3932.3925.9263.6127 1.4819.6122.5555-.0006 1.0882-.2218 1.4807-.615 1.6578-1.6603 2.7862-3.7748 3.2426-6.0763.4564-2.3015.2203-4.6866-.6784-6.8539-.8987-2.1674-2.4197-4.0196-4.3708-5.3228-1.9511-1.3031-4.2448-1.9987-6.591-1.9987-2.3463 0-4.6399.6956-6.5911 1.9987-1.9511 1.3032-3.4721 3.1554-4.3708 5.3228-.8987 2.1673-1.1348 4.5524-.6784 6.8539.4565 2.3015 1.5849 4.416 3.2427 6.0763.1917.2058.4229.3708.6798.4852.2569.1145.5342.176.8153.181.2812.005.5605-.0468.8213-.1521.2608-.1053.4976-.2621.6965-.4609.1988-.1989.3556-.4358.4609-.6965.1054-.2608.1571-.5401.1521-.8213-.0049-.2812-.0665-.5585-.1809-.8153-.1145-.2569-.2795-.4881-.4853-.6798a7.648567 7.648567 0 01-1.6623-2.489c-.3848-.931-.5818-1.9289-.5798-2.9363z" fill="#6ABC44"/></svg>