<svg width="42" height="40" viewBox="0 0 42 40" fill="none" xmlns="http://www.w3.org/2000/svg"><rect y=".838867" width="42" height="38.3228" rx="19.1614" fill="#F1F9F5"/><path d="M27.202 13.2955c.3111-.2961.725-.4598 1.1545-.4566.4294.0033.8408.1732 1.1473.474.3066.3008.4843.7089.4956 1.1383.0114.4293-.1445.8462-.4347 1.1628l-8.8103 11.0184c-.1515.1631-.3343.2941-.5376.385-.2032.0909-.4227.1398-.6454.144-.2226.0041-.4437-.0367-.6502-.12-.2065-.0833-.3941-.2074-.5515-.3649l-5.8426-5.8426a1.655219 1.655219 0 01-.3837-.5376 1.655584 1.655584 0 01-.1431-.6448c-.004-.2223.0369-.4432.1202-.6494s.2073-.3935.3646-.5508c.1572-.1573.3445-.2812.5507-.3645.2062-.0833.4271-.1242.6495-.1203.2223.0039.4416.0526.6448.1431.2031.0905.3859.221.5376.3837l4.6237 4.6216 7.6687-9.7708c.0138-.017.0263-.0332.0419-.0486z" fill="#6ABC44"/></svg>