<svg width="73" height="72" viewBox="0 0 73 72" fill="none" xmlns="http://www.w3.org/2000/svg"><path d="M2.03694 36c0 18.9284 15.26376 34.3577 34.12956 34.626v.0044h.5c19.0953 0 34.6296-15.5343 34.6296-34.6296S55.7626 1.37122 36.6665 1.37122C17.5704 1.37122 2.03694 16.9046 2.03694 36zm-.87044 0c0-19.5742 15.9258-35.5 35.5-35.5 19.5742 0 35.5 15.9258 35.5 35.5 0 19.5742-15.9258 35.5-35.5 35.5-19.5742 0-35.5-15.9258-35.5-35.5z" fill="#F1F2F2" stroke="url(#paint0_linear_1129_1173)"/><g clip-path="url(#clip0_1129_1173)" stroke-width="2" stroke-linecap="round" stroke-linejoin="round"><path d="M57.125 32.3478v21.0348c0 .9652-.7875 1.7478-1.75 1.7478h-36.75c-.9625 0-1.75-.7826-1.75-1.7478V32.3478c0-.5217.2362-1.0174.6387-1.3478l18.97-13.9565c.3063-.2261.7263-.2261 1.0413 0L56.495 31c.4025.3304.6387.8261.6387 1.3478h-.0087z" stroke="url(#paint1_linear_1129_1173)"/><path d="M47.5 49.7913L16.875 32.5217" stroke="url(#paint2_linear_1129_1173)"/><path d="M57.125 32.5217L40.5 42.6869" stroke="url(#paint3_linear_1129_1173)"/><path d="M21.25 49.9131h5.25" stroke="url(#paint4_linear_1129_1173)"/><path d="M23.875 36.4695v-4.8173c0-.4783.3937-.8696.875-.8696h24.5c.4813 0 .875.3913.875.8696V36.8" stroke="url(#paint5_linear_1129_1173)"/></g><defs><linearGradient id="paint0_linear_1129_1173" x1=".666504" y1="36.313" x2="62.3332" y2="-14.5" gradientUnits="userSpaceOnUse"><stop offset=".145833" stop-color="#CB9636"/><stop offset=".265625" stop-color="#CFA855"/><stop offset=".427083" stop-color="#FCE4A7"/><stop offset=".578125" stop-color="#F0D592"/><stop offset=".713542" stop-color="#CFA855"/><stop offset=".828125" stop-color="#CB9636"/></linearGradient><linearGradient id="paint1_linear_1129_1173" x1="15.9165" y1="55.1304" x2="55.0569" y2="55.1304" gradientUnits="userSpaceOnUse"><stop stop-color="#D2B15E"/><stop offset="1" stop-color="#CB9636"/></linearGradient><linearGradient id="paint2_linear_1129_1173" x1="16.1458" y1="49.7913" x2="45.9201" y2="49.7913" gradientUnits="userSpaceOnUse"><stop stop-color="#D2B15E"/><stop offset="1" stop-color="#CB9636"/></linearGradient><linearGradient id="paint3_linear_1129_1173" x1="40.1042" y1="42.6869" x2="56.2674" y2="42.6869" gradientUnits="userSpaceOnUse"><stop stop-color="#D2B15E"/><stop offset="1" stop-color="#CB9636"/></linearGradient><linearGradient id="paint4_linear_1129_1173" x1="21.125" y1="50.9131" x2="26.2292" y2="50.9131" gradientUnits="userSpaceOnUse"><stop stop-color="#D2B15E"/><stop offset="1" stop-color="#CB9636"/></linearGradient><linearGradient id="paint5_linear_1129_1173" x1="23.25" y1="36.8" x2="48.7708" y2="36.8" gradientUnits="userSpaceOnUse"><stop stop-color="#D2B15E"/><stop offset="1" stop-color="#CB9636"/></linearGradient><clipPath id="clip0_1129_1173"><path fill="#fff" transform="translate(16 16)" d="M0 0h42v40H0z"/></clipPath></defs></svg>