<svg width="243" height="243" viewBox="0 0 243 243" fill="none" xmlns="http://www.w3.org/2000/svg">
<g opacity="0.8">
<path d="M204.094 79.6427L161.302 41.2012C160.417 40.406 158.137 39.7641 157.342 40.6491L157.297 40.8234C156.927 41.1774 156.668 41.6952 156.542 42.139C156.238 43.193 156.122 44.3553 156.148 45.449C156.174 46.4898 156.359 47.5306 156.698 48.516C156.856 48.9782 157.062 49.4273 157.276 49.8658C157.387 50.093 157.501 50.3202 157.625 50.5395C149.597 57.6878 134.946 73.1733 130.693 93.9949C130.608 94.4017 130.418 94.7847 130.128 95.0833C125.56 99.7484 119.384 102.617 112.938 102.984C102.924 103.56 92.8062 103.185 82.8603 101.878L79.265 101.407C77.1622 101.135 75.1017 101.291 73.1178 101.759C72.7638 101.841 72.3993 101.835 72.0506 101.735C68.6719 100.768 59.0668 98.8265 50.8591 104.873C45.9879 108.463 42.9315 113.913 41.1484 119.601C40.0151 123.212 39.352 126.963 38.9822 130.725C38.7709 132.864 38.5965 135.044 38.6177 137.197C38.6335 138.665 38.4433 140.129 38.4486 141.595C38.4512 142.654 38.5939 143.708 38.6203 144.765C38.6441 145.737 38.409 146.823 38.7814 147.753C39.4551 149.441 43.23 145.571 43.6236 144.974C45.2271 142.525 45.4992 139.508 45.5785 136.658C45.6551 133.829 45.8188 131.06 46.2098 128.252C46.8438 123.687 48.0114 119.054 50.4259 115.083C51.5566 113.224 52.983 111.528 54.7371 110.225C55.7145 109.496 56.7342 108.936 57.7618 108.508C59.6823 107.71 61.5315 109.758 60.4854 111.554C60.3322 111.818 60.1842 112.085 60.0389 112.36C58.24 115.741 57.0248 119.748 56.3195 124.62C54.2563 138.882 56.9033 153.084 59.4604 166.818C60.6095 172.997 60.8314 176.682 61.4549 182.649C61.4839 183.048 61.4945 183.439 61.3624 183.827C61.2039 184.298 60.9239 184.726 60.6809 185.156C60.5937 185.309 60.5065 185.465 60.4167 185.618C60.2239 185.846 60.0363 186.081 59.8725 186.406C59.7114 186.723 59.7087 187.185 60.0178 187.357C60.1367 187.423 60.2767 187.431 60.4114 187.436C60.4775 187.436 64.7094 187.631 65.6472 187.568C65.877 187.552 68.1911 187.56 68.6455 187.116C68.9044 186.863 68.8832 186.445 68.8436 186.086C68.7776 185.473 68.7089 184.863 68.6402 184.25C68.4764 182.765 68.0538 181.36 67.8926 179.886C67.7473 178.576 67.5994 177.268 67.4435 175.961C67.0314 172.5 66.5929 169.034 65.9563 165.605C64.9524 160.206 63.938 154.732 63.2142 149.248C63.0187 147.75 64.4109 146.519 65.8744 146.897C69.2663 147.771 73.4058 148.514 77.6721 148.514C77.6985 148.514 77.7249 148.514 77.7513 148.514C77.7513 148.514 94.8455 182.95 94.9538 183.957C95.0542 184.916 94.51 185.991 94.8746 186.86C95.2788 187.819 104.068 187.491 104.469 186.881C104.963 186.128 104.234 185.201 103.864 184.567C103.28 183.566 85.9537 150.001 85.9537 150.001C85.3725 148.839 85.9458 147.444 87.1715 147.016C88.4738 146.559 89.7445 145.986 90.9597 145.267C92.6952 144.242 94.2142 142.974 95.5482 141.5C96.14 140.845 97.0249 140.565 97.8597 140.853C103.846 142.919 116.341 145.674 137.538 148.582C139.482 148.849 141.365 148.981 143.185 148.981C143.735 148.981 144.276 148.965 144.81 148.936C145.893 148.878 146.831 149.676 147 150.748L151.692 180.248L151.929 181.738C151.929 181.738 152.178 184.361 152.273 184.855C152.373 185.378 152.36 185.861 152.223 186.377C152.119 186.76 151.887 187.362 152.093 187.745C152.265 188.067 152.83 188.139 153.163 188.073C155.107 188.067 157.054 188.059 158.998 188.065C159.374 188.065 160.99 188.086 161.315 187.964C161.899 187.748 161.841 187.042 161.632 186.509C161.228 185.471 160.425 184.691 159.809 183.783C159.809 183.783 159.609 183.458 159.278 182.924C159.265 182.887 159.249 182.847 159.236 182.81C158.94 182.036 158.66 181.257 158.407 180.467L153.432 149.195C153.271 148.181 153.863 147.224 154.817 146.839C157.823 145.626 160.523 143.896 162.89 141.695L162.868 141.883L175.144 143.336C176.632 143.513 177.49 145.116 176.811 146.45L168.868 162.079L167.996 163.796C167.877 163.92 167.756 164.041 167.637 164.165C167.246 164.57 166.865 164.984 166.472 165.383C166.139 165.724 165.843 165.988 165.407 166.081C165.22 166.12 165.109 166.242 165.035 166.379C165.019 166.403 165.008 166.437 164.998 166.466C164.976 166.53 164.958 166.588 164.958 166.654C164.958 166.683 164.942 166.696 164.942 166.728C164.947 167.676 167.542 172.186 168.619 173.29C170.009 174.716 170.638 173.065 171.261 171.871C171.678 171.071 172.096 170.27 172.513 169.473C173.028 168.487 174.04 166.506 174.032 166.498L186.992 141.001C187.671 139.664 186.813 138.061 185.325 137.884L170.904 136.18C169.415 136.003 168.572 134.41 169.248 133.07C170.574 130.447 171.649 127.523 172.444 124.29C174.595 115.538 174.188 105.779 171.24 95.2893C171.044 94.5893 170.87 93.9553 170.714 93.3794C170.344 92.0084 171.377 90.6717 172.796 90.6717H198.103C198.845 90.6717 199.535 90.2886 199.931 89.6599L204.483 82.3795C205.037 81.4919 204.874 80.3348 204.097 79.6348L204.094 79.6427ZM138.43 142.039C117.329 139.144 106.929 136.721 101.994 135.252C100.855 134.914 100.171 133.726 100.528 132.595C101.125 130.714 101.569 128.675 101.862 126.477C102.02 125.278 101.101 124.197 99.8938 124.097L97.5982 123.909C96.4754 123.817 95.4452 124.604 95.2946 125.719C94.3912 132.431 91.8076 137.086 87.6021 139.574C80.1499 143.988 69.1263 141.194 63.6924 139.352C62.8391 139.064 62.2632 138.275 62.2395 137.374C62.1364 133.414 62.2844 129.47 62.8497 125.568C63.444 121.466 64.4294 118.163 65.8638 115.466C68.7168 110.109 73.4005 107.298 78.3747 107.953C78.4672 107.967 81.9991 108.429 81.9991 108.429C92.3518 109.787 102.887 110.172 113.311 109.581C117.891 109.319 122.356 108.043 126.408 105.933C127.811 105.203 129.494 106.133 129.554 107.713C130.014 119.468 134.177 131.063 142.012 142.343C140.866 142.298 139.68 142.205 138.428 142.034L138.43 142.039ZM166.028 122.718C164.374 129.449 160.813 136.782 153.343 140.28C152.246 140.792 150.902 140.332 150.408 139.228C145.867 129.076 144.881 119.717 147.563 111.366C150.328 102.752 156.452 96.8875 160.874 93.5907C162.089 92.6846 163.822 93.2816 164.226 94.7425C164.427 95.4716 164.646 96.2509 164.879 97.083C167.518 106.464 167.903 115.086 166.028 122.715V122.718ZM170.77 84.3449C169.827 84.2973 168.891 84.1917 167.962 84.1151C166.305 83.9803 164.66 83.9433 163.014 84.506C160.75 85.2774 158.795 86.9522 156.861 88.31C154.716 89.8158 152.738 91.6464 150.923 93.53C146.612 97.997 143.214 103.346 141.299 109.266C141.067 109.985 140.855 110.711 140.668 111.44C140.084 113.71 136.719 113.44 136.449 111.113C135.989 107.172 136.005 103.217 136.505 99.2597C138.161 86.091 144.865 74.827 151.549 66.5533C152.323 65.597 153.741 65.5019 154.653 66.3287C160.845 71.9581 166.855 77.783 172.954 83.5128C173.958 84.4558 171.2 84.3634 170.775 84.3422L170.77 84.3449ZM184.628 73.0835L181.862 79.0404C181.239 80.3797 179.487 80.7152 178.42 79.6903C174.74 76.1557 169.782 71.4113 165.354 67.2507C164.255 66.2178 163.175 65.1558 162.044 64.1625C160.866 63.127 159.561 62.2315 158.465 61.1035C158.047 60.6755 157.358 59.8117 157.971 59.2649C158.769 58.5543 159.545 57.8199 160.325 57.0855C161.299 56.1636 162.293 55.2628 163.304 54.3857C164.123 53.6751 165.333 53.7015 166.141 54.4254L184.115 70.5712C184.821 71.2052 185.029 72.2223 184.63 73.0808L184.628 73.0835ZM196.119 83.4309C195.974 83.6581 195.784 83.8166 195.567 83.9249C194.938 84.2366 194.164 84.1045 193.488 84.0992C192.386 84.0886 191.288 84.0754 190.186 84.0754C188.611 84.0754 187.568 82.4429 188.231 81.0137L189.211 78.9004C189.821 77.5875 191.528 77.2362 192.606 78.2056C193.171 78.7128 193.736 79.22 194.302 79.7272C194.925 80.2873 196.922 81.4126 196.756 82.287C196.682 82.6701 196.328 83.1086 196.122 83.4309H196.119Z" fill="white"/>
<path d="M121.629 0.464111C54.9616 0.464111 0.7229 54.7028 0.7229 121.371C0.7229 188.038 54.9616 242.277 121.629 242.277C188.297 242.277 242.536 188.038 242.536 121.371C242.536 54.7028 188.297 0.464111 121.629 0.464111ZM121.629 235.995C58.4248 235.995 7.00478 184.575 7.00478 121.371C7.00478 58.166 58.4222 6.74863 121.629 6.74863C184.837 6.74863 236.254 58.1687 236.254 121.373C236.254 184.578 184.834 235.998 121.629 235.998V235.995Z" fill="white"/>
</g>
</svg>
