<svg width="73" height="72" viewBox="0 0 73 72" fill="none" xmlns="http://www.w3.org/2000/svg"><path d="M1.70369 36c0 18.9284 15.26381 34.3577 34.12951 34.626v.0044h.5c19.0954 0 34.6296-15.5343 34.6296-34.6296S55.4294 1.37122 36.3332 1.37122C17.2371 1.37122 1.70369 16.9046 1.70369 36zm-.870438 0C.833252 16.4258 16.759.5 36.3332.5 55.9075.5 71.8333 16.4258 71.8333 36c0 19.5742-15.9258 35.5-35.5001 35.5C16.759 71.5.833252 55.5742.833252 36z" fill="#F1F2F2" stroke="url(#paint0_linear_1129_1093)"/><path d="M24.7036 36.7776c-3.0286-4.0741-2.0191-10.1853 3.0287-12.2224 5.0478-2.0371 8.0765 2.0371 9.086 4.0741 1.0096-2.037 5.0478-6.1112 10.0956-4.0741 5.0478 2.0371 5.0478 8.1483 2.0192 12.2224C45.9044 40.8517 36.8183 49 36.8183 49s-9.086-8.1483-12.1147-12.2224z" stroke="url(#paint1_linear_1129_1093)" stroke-width="2" stroke-linecap="round" stroke-linejoin="round"/><defs><linearGradient id="paint0_linear_1129_1093" x1=".333252" y1="36.313" x2="62" y2="-14.5" gradientUnits="userSpaceOnUse"><stop offset=".145833" stop-color="#CB9636"/><stop offset=".265625" stop-color="#CFA855"/><stop offset=".427083" stop-color="#FCE4A7"/><stop offset=".578125" stop-color="#F0D592"/><stop offset=".713542" stop-color="#CFA855"/><stop offset=".828125" stop-color="#CB9636"/></linearGradient><linearGradient id="paint1_linear_1129_1093" x1="22.3333" y1="49" x2="49.5556" y2="49" gradientUnits="userSpaceOnUse"><stop stop-color="#D2B15E"/><stop offset="1" stop-color="#CB9636"/></linearGradient></defs></svg>