<svg width="213" height="44" viewBox="0 0 213 44" fill="none" xmlns="http://www.w3.org/2000/svg"><path d="M51.6059 31.4822c.133-.1311.2888-.2329.4697-.3045.1801-.0717.3797-.1075.5971-.1075.2175 0 .4203.0407.6061.1221.1865.0814.3545.2044.5054.3673l.4997-.4715c-.1939-.2304-.4324-.4047-.7131-.522-.2815-.1172-.5922-.1758-.933-.1758-.3212 0-.6165.0529-.8859.1579-.2693.1059-.5054.2549-.7074.4479-.202.193-.3586.4201-.4697.6832-.1112.263-.1664.5488-.1664.859 0 .3102.0552.5969.1664.8591.1111.263.2661.4902.4664.6831.2004.193.4357.342.7075.4479.2718.105.5654.158.8827.158.3447 0 .6579-.0595.9394-.1792s.5192-.2923.7131-.5195l-.4997-.4772c-.1509.167-.3189.2916-.5054.373-.1866.0814-.3886.1221-.6061.1221-.2174 0-.417-.0358-.5971-.1075-.1809-.0716-.3367-.1726-.4697-.3045-.1331-.1311-.2361-.2866-.3091-.4649-.073-.1792-.1103-.3762-.1103-.5904 0-.2141.0365-.412.1103-.5903.073-.1792.176-.3347.3091-.4658zM57.5826 32.8249h2.0096v-.6384h-2.0096v-1.0862h2.2651v-.6506h-3.0374v4.1764h3.1202v-.6498h-2.3479v-1.1514zM65.2362 33.2337c.2637-.1173.4665-.2866.6093-.5073.1428-.2207.2142-.4845.2142-.7907 0-.3061-.0714-.5708-.2142-.7939-.1428-.2231-.3456-.3941-.6093-.513-.2636-.1197-.58-.1791-.9484-.1791H62.576v4.1764h.7732v-1.2173h.9395c.0559 0 .103-.0106.1565-.0131l.8543 1.2304h.8324l-.9589-1.3737c.0202-.0081.0446-.0106.064-.0195l-.0008.0008zm-.2141-1.9119c.1719.1433.2587.3477.2587.6148 0 .267-.0859.4674-.2587.6147-.172.1474-.4292.2207-.77.2207h-.9037v-1.6644h.9037c.3408 0 .598.0717.77.215v-.0008zM68.1106 31.106h1.3784v3.5201h.7731V31.106h1.3792v-.6563h-3.5307v.6563zM74.7801 30.4497h-.7731v4.1764h.7731v-4.1764zM77.686 34.6261h.7732v-1.5984h2.0087v-.6563h-2.0087v-1.2711h2.2643v-.6506H77.686v4.1764zM84.0295 30.4497h-.7732v4.1764h.7732v-4.1764zM87.7086 32.8249h2.0087v-.6384h-2.0087v-1.0862h2.2643v-.6506h-3.0375v4.1764h3.121v-.6498h-2.3478v-1.1514zM95.7094 30.7127c-.3407-.1751-.7374-.263-1.1885-.263H92.702v4.1764h1.8189c.4519 0 .8478-.0871 1.1885-.263.3408-.1751.6061-.4185.7967-.7304.1899-.3127.2856-.6775.2856-1.0952 0-.4177-.0949-.7874-.2856-1.0976-.1906-.3103-.4559-.5529-.7967-.728v.0008zm.116 2.5772c-.1249.2149-.3009.3819-.5289.5008-.228.1197-.4981.1791-.8113.1791h-1.0108V31.106h1.0108c.3132 0 .5833.0594.8113.1791.228.1197.404.285.5289.4984.125.2125.1874.4641.1874.7548s-.0624.5366-.1874.7516zM105.479 30.6288c-.264-.1197-.58-.1791-.949-.1791h-1.711v4.1764h.773V33.421h.939c.369 0 .685-.0595.949-.1792.263-.1188.466-.2898.609-.513.143-.2231.214-.4877.214-.7939 0-.3061-.071-.5708-.214-.7939-.143-.2231-.346-.3941-.609-.513l-.001.0008zm-.214 1.9177c-.172.1457-.43.2182-.77.2182h-.904V31.106h.904c.34 0 .598.0717.77.215.172.1433.258.3477.258.6147 0 .2671-.086.4666-.258.6116v-.0008zM111.705 32.7769c0 .4291-.09.7418-.273.9364-.183.1946-.442.2923-.779.2923s-.598-.0977-.782-.2923c-.184-.1946-.277-.5073-.277-.9364v-2.3272h-.773v2.3565c0 .6083.162 1.074.485 1.3965.323.3224.77.4837 1.34.4837.57 0 1.012-.1613 1.334-.4837.323-.3225.485-.7874.485-1.3965v-2.3565h-.761v2.3272h.001zM118.422 32.5114c-.05-.0228-.106-.035-.16-.0513.165-.0846.298-.2019.398-.3542.103-.1571.154-.3469.154-.57 0-.3297-.131-.5936-.393-.7906-.261-.1971-.642-.2956-1.141-.2956h-1.95v4.1764h2.069c.539 0 .945-.0993 1.219-.298.273-.1987.41-.4772.41-.8355 0-.2426-.054-.4454-.164-.6082-.109-.1629-.256-.2875-.443-.373h.001zm-1.224-1.4526c.269 0 .476.048.621.1433.145.0953.217.241.217.4356s-.072.3347-.217.43c-.145.0952-.352.1433-.621.1433h-1.094v-1.1514h1.094v-.0008zm.82 2.8165c-.154.0953-.376.1434-.665.1434h-1.249v-1.2052h1.249c.289 0 .511.0489.665.1466.154.0977.232.25.232.456 0 .206-.077.364-.232.4592zM122.411 30.4497h-.773v4.1764h2.949v-.6563h-2.176v-3.5201zM127.755 30.4497h-.773v4.1764h.773v-4.1764zM131.562 31.4822c.133-.1311.289-.2329.47-.3045.18-.0717.38-.1075.597-.1075.217 0 .42.0407.606.1221.187.0814.355.2044.505.3673l.5-.4715c-.194-.2304-.432-.4047-.713-.522-.281-.1172-.592-.1758-.933-.1758-.321 0-.616.0529-.886.1579-.269.1059-.505.2549-.707.4479-.202.193-.359.4201-.47.6831-.111.2631-.166.5489-.166.8591 0 .3102.055.5969.166.8591.111.263.266.4902.467.6831.2.193.435.342.707.4479.272.105.565.158.883.158.344 0 .658-.0595.939-.1792.282-.1197.519-.2923.713-.5195l-.5-.4772c-.15.167-.318.2916-.505.373-.187.0814-.389.1221-.606.1221-.217 0-.417-.0358-.597-.1075-.181-.0716-.337-.1726-.47-.3045-.133-.1311-.236-.2866-.309-.4649-.073-.1792-.11-.3762-.11-.5904 0-.2141.036-.412.11-.5903.073-.1792.176-.3347.309-.4658zM141.474 30.4497l-1.873 4.1764h.797l.412-.9665h2.081l.414.9665h.809l-1.879-4.1764h-.761zm-.404 2.6016l.778-1.8272.783 1.8272h-1.561zM147.267 31.4822c.133-.1311.289-.2329.47-.3045.18-.0717.379-.1075.597-.1075.217 0 .42.0407.606.1221s.354.2044.505.3673l.5-.4715c-.194-.2304-.432-.4047-.713-.522-.282-.1172-.592-.1758-.933-.1758-.321 0-.617.0529-.886.1579-.269.1059-.505.2549-.707.4479-.202.193-.359.4201-.47.6831-.111.2631-.166.5489-.166.8591 0 .3102.055.5969.166.8591.111.263.266.4902.466.6831.201.193.436.342.708.4479.272.105.565.158.882.158.345 0 .658-.0595.94-.1792.281-.1197.519-.2923.713-.5195l-.5-.4772c-.151.167-.319.2916-.505.373-.187.0814-.389.1221-.606.1221-.218 0-.417-.0358-.597-.1075-.181-.0716-.337-.1726-.47-.3045-.133-.1311-.236-.2866-.309-.4649-.073-.1792-.11-.3762-.11-.5904 0-.2141.036-.412.11-.5903.073-.1792.176-.3347.309-.4658zM153.283 31.4822c.133-.1311.288-.2329.469-.3045.18-.0717.38-.1075.597-.1075.218 0 .421.0407.607.1221s.354.2044.505.3673l.5-.4715c-.194-.2304-.433-.4047-.713-.522-.282-.1172-.593-.1758-.933-.1758-.322 0-.617.0529-.886.1579-.27.1059-.506.2549-.708.4479-.202.193-.358.4201-.469.6831-.112.2631-.167.5489-.167.8591 0 .3102.055.5969.167.8591.111.263.266.4902.466.6831.2.193.436.342.707.4479.272.105.566.158.883.158.345 0 .658-.0595.94-.1792.281-.1197.519-.2923.713-.5195l-.5-.4772c-.151.167-.319.2916-.505.373-.187.0814-.389.1221-.607.1221-.217 0-.417-.0358-.597-.1075-.181-.0716-.336-.1726-.469-.3045-.133-.1311-.236-.2866-.309-.4649-.073-.1792-.111-.3762-.111-.5904 0-.2141.037-.412.111-.5903.073-.1792.176-.3347.309-.4658zM161.946 31.0018c-.202-.193-.439-.3428-.71-.4503-.272-.1075-.57-.1612-.895-.1612-.326 0-.618.0537-.892.1612-.273.1075-.511.2573-.713.4503-.202.193-.359.4193-.47.6799-.111.2606-.166.5456-.166.8558 0 .3102.055.5952.166.8558.111.2606.268.4869.47.6799.202.193.44.3428.713.4503.274.1075.573.1612.897.1612.325 0 .618-.0537.889-.1612.271-.1075.508-.2565.71-.4478.202-.1906.359-.4178.47-.68.111-.2622.166-.5488.166-.859 0-.3103-.055-.5961-.166-.8558-.111-.2606-.268-.4878-.47-.6799l.001.0008zm-.252 2.1236c-.073.1767-.175.3322-.306.4658-.131.1335-.285.2353-.464.3069-.178.0717-.372.1075-.582.1075-.211 0-.404-.0358-.583-.1075-.178-.0716-.333-.1742-.464-.3069-.131-.1336-.233-.2891-.306-.4682-.073-.1792-.11-.3738-.11-.5847 0-.2109.036-.4112.11-.5879.073-.1767.176-.3322.309-.4649.133-.1336.287-.2362.464-.307.176-.0717.369-.1075.58-.1075.21 0 .404.0358.582.1075.179.0716.333.1734.464.307.131.1335.233.2882.306.4649.073.1767.11.3729.11.5879 0 .215-.036.4104-.11.5879v-.0008zM168.033 32.7769c0 .4291-.091.7418-.273.9364-.183.1946-.442.2923-.779.2923s-.598-.0977-.782-.2923c-.184-.1946-.277-.5073-.277-.9364v-2.3272h-.773v2.3565c0 .6083.162 1.074.485 1.3965.322.3224.769.4837 1.34.4837.57 0 1.011-.1613 1.334-.4837.323-.3225.485-.7874.485-1.3965v-2.3565h-.761v2.3272h.001zM174.59 33.2777l-2.295-2.828h-.636v4.1764h.766v-2.8272l2.296 2.8272h.636v-4.1764h-.767v2.828zM177.722 31.106h1.38v3.5201h.772V31.106h1.379v-.6563h-3.531v.6563zM184.694 30.4497l-1.872 4.1764h.797l.412-.9665h2.081l.414.9665h.808l-1.878-4.1764h-.762zm-.404 2.6016l.779-1.8272.782 1.8272h-1.561zM192.577 33.2777l-2.294-2.828h-.637v4.1764h.767v-2.8272l2.294 2.8272h.636v-4.1764h-.766v2.828zM195.71 31.106h1.379v3.5201h.772V31.106h1.38v-.6563h-3.531v.6563zM204.403 32.9023c-.089-.1433-.206-.2565-.351-.3404-.145-.0838-.305-.1514-.482-.2027-.176-.0521-.353-.0986-.532-.1401-.178-.0415-.34-.0847-.484-.1286-.145-.044-.262-.1043-.351-.1824-.09-.0774-.134-.18-.134-.307 0-.1075.031-.2028.092-.2866.061-.0839.158-.1515.292-.2028.133-.0513.305-.0774.52-.0774.182 0 .372.0269.57.0807.198.0537.39.1359.577.2475l.244-.6026c-.183-.1197-.396-.2109-.642-.2744-.246-.0635-.493-.0952-.743-.0952-.38 0-.694.057-.942.1701-.247.1132-.432.2647-.552.4536-.121.1889-.182.3965-.182.6237s.045.4055.137.5488c.091.1434.209.2574.354.3428.145.0855.305.1548.482.2085.176.0537.353.1002.529.1401.176.0399.336.0822.482.1286.144.0456.262.1075.353.1849.092.0773.137.1799.137.3069 0 .1034-.031.1963-.095.2777-.063.0814-.162.1466-.296.1938-.135.048-.312.0717-.529.0717-.258 0-.51-.044-.756-.1311-.246-.088-.452-.1971-.618-.3282l-.268.6026c.175.1473.411.2679.708.3607.298.0936.608.14.933.14.38 0 .695-.057.945-.1701.249-.1132.435-.2647.556-.4536.12-.1889.181-.3949.181-.6172s-.044-.3998-.134-.5431l-.001.0008z" fill="#152636"/><path d="M43.9369 13.3785l-9.1253-8.22742c-.189-.17018-.675-.30779-.8445-.11806l-.0098.03745c-.0787.07573-.1338.18647-.1614.28174-.0649.22555-.0901.47472-.0844.70842.0057.22311.0446.4454.1177.6563.034.09853.0778.19542.1233.28907.0235.04885.0478.09689.0738.14412-1.7118 1.53002-4.836 4.84408-5.743 9.30058-.0179.0872-.0585.1694-.1209.2329-.9744.9983-2.2911 1.6123-3.6654 1.6913-2.1353.1237-4.2924.0431-6.4139-.237l-.7667-.101c-.4478-.0578-.8875-.0244-1.311.0758-.0755.0179-.1534.0163-.2272-.0049-.7204-.2068-2.7689-.6229-4.5188.6718-1.0384.7678-1.69071 1.9347-2.0712 3.152-.24176.7727-.38292 1.5756-.46161 2.3809-.04463.4577-.08276.9242-.07789 1.3851.00325.3143-.03732.627-.03651.9413 0 .2264.03083.4519.03651.6783.00487.2085-.04543.4405.03408.6392.14359.3615.94919-.4666 1.03275-.5952.34237-.5244.39997-1.1701.41697-1.78.0163-.6058.0511-1.1986.1347-1.7988.1355-.9771.3837-1.9689.8989-2.8182.2409-.3981.5452-.7605.9192-1.0398.2085-.1555.4259-.276.6449-.3672.4089-.171.804.2679.5809.6522-.0324.0562-.0641.114-.0957.1718-.3837.7239-.6434 1.5813-.7926 2.6236-.4397 3.0527.1241 6.0916.6693 9.0319.245 1.3224.2774 1.3533.4105 2.6309.0065.0855.0081.1694-.0195.2525-.0341.1001-.0933.1921-.1452.2841l-.056.0994c-.0406.0488-.0811.0993-.116.1685-.0341.0676-.0349.167.0308.2036.0252.0138.0552.0155.0836.0171.0138 0 .9167.0415 1.1163.0285.0495-.0033.5428-.0016.6393-.0969.0552-.0546.0511-.1433.0422-.2207-.0146-.1311-.0284-.2622-.043-.3924-.0349-.3176-.125-.6189-.1598-.934-.0309-.2801-.0625-.5602-.0958-.8403-.0884-.741-.1663-.7256-.3026-1.4592-.2142-1.1555-.4308-2.3272-.5841-3.5014-.0422-.3208.2547-.5838.5671-.5032.7236.1873 1.6055.3461 2.5158.3461h.017s3.6305 6.6127 3.6532 6.8284c.0219.2052-.0941.4357-.0162.6213.086.2052 1.96.1352 2.046.0049.1055-.1612-.0503-.3599-.129-.4951-.1241-.2141-3.8041-6.6412-3.8041-6.6412-.1241-.2483-.0016-.5472.2596-.6384.2775-.0977.5485-.2206.8081-.3737.3699-.219.6944-.491.9784-.8061.1257-.1401.3147-.2003.4932-.1385 1.2762.4422 3.9404 1.0317 8.4608 1.6546.4146.057.8162.0855 1.2048.0855.1168 0 .2328-.0032.3464-.0097.2304-.0122.4308.1588.4673.3876l.9857 5.5566.0503.3191s.0527.5619.073.6669c.0211.1116.0187.2158-.0105.3257-.0219.0823-.0714.2109-.0276.2932.0365.0684.1574.0839.228.07.4145-.0016.8299-.0032 1.2445-.0016.0803 0 .4243.0041.494-.0212.125-.0464.112-.1979.0682-.311-.0868-.2223-.258-.3893-.3886-.5831 0 0-.043-.07-.1136-.184-.0032-.0081-.0057-.0163-.0089-.0244-.0633-.1653-.1225-.3322-.1769-.5016l-1.0457-5.936c-.0349-.2175.0917-.4218.2953-.5041.6409-.2597 1.2169-.6294 1.7215-1.1009l-.0048.0399 2.6171.3111c.3172.0374.5006.3811.3554.6669l-1.694 3.345-.1858.3672c-.0251.0269-.0511.053-.0762.079-.0836.0863-.1647.1751-.2483.2606-.0714.0724-.1338.1294-.2271.149-.0398.0081-.0633.0342-.0795.0643-.0033.0049-.0057.0122-.0081.0187-.0049.0139-.0082.0261-.009.0399 0 .0057-.0032.009-.0032.0155.0008.2036.5541 1.1685.7837 1.4046.2961.3054.43-.048.563-.3037.0893-.171.1785-.3428.2669-.5138.1095-.2109.3262-.6351.3245-.6368l2.7641-5.4572c.1444-.2858-.0382-.6294-.3554-.6669l-3.0747-.3648c-.318-.0374-.4973-.3786-.3529-.6652.2823-.5611.5119-1.1873.6814-1.8794.4584-1.8728.3716-3.9614-.2571-6.2072-.0422-.1498-.0795-.285-.112-.4087-.0787-.2932.1412-.5798.4438-.5798h5.3966c.1582 0 .3058-.0822.3894-.2166l.9703-1.5577c.1185-.1897.0836-.4381-.0827-.5871l.0016-.0008zm-14.0027 13.354c-4.4993-.6196-6.7174-1.1383-7.7696-1.4526-.2426-.0725-.3886-.3265-.3123-.5692.1273-.4022.2222-.8387.2839-1.3093.0341-.2573-.1623-.4878-.4194-.509l-.4892-.0407c-.2394-.0195-.4592.1482-.4909.3876-.1922 1.4364-.7431 2.4331-1.6404 2.9656-1.5893.9446-3.9395.3461-5.098-.0472-.1818-.0619-.3051-.2305-.3099-.4234-.0219-.8477.0097-1.6913.1298-2.5267.1265-.8778.3366-1.5846.6425-2.1619.6085-1.1465 1.6071-1.7483 2.6675-1.6082.0195.0024.7731.1018.7731.1018 2.2075.2907 4.4539.3729 6.6769.2467.9767-.0562 1.9284-.329 2.7932-.7809.2993-.1563.6579.0432.6709.3811.0982 2.5161.9857 4.9972 2.6561 7.4115-.2442-.0098-.4973-.0293-.7642-.066v.0008zm5.885-4.1348c-.3521 1.4404-1.1122 3.0103-2.7048 3.7587-.2336.1099-.52.0114-.6255-.2256-.9678-2.1725-1.1788-4.1756-.6068-5.9629.5898-1.8435 1.8959-3.0991 2.8387-3.8043.2588-.1938.6287-.0659.7147.2467.043.1564.09.3233.1395.5008.5631 2.0072.645 3.8531.245 5.4858l-.0008.0008zm1.0117-8.2128c-.2012-.0106-.4-.0325-.5987-.0488-.3538-.0285-.7042-.0367-1.0555.083-.4827.1645-.8997.5236-1.3118.8143-.4576.3225-.8795.7141-1.2665 1.1172-.9191.9559-1.6436 2.1008-2.0517 3.3678-.0495.1539-.0941.3094-.1346.465-.1242.4853-.8422.4283-.8998-.0701-.0981-.8436-.0941-1.6896.0114-2.5372.3529-2.8182 1.7832-5.2293 3.2078-7.0003.1647-.2052.4673-.2256.662-.0481 1.32 1.2043 2.6018 2.4518 3.9022 3.6781.2142.2019-.3739.1824-.4648.1775v.0016zm2.9547-2.4102l-.5898 1.2743c-.1331.2866-.5071.3583-.7342.1393-.7845-.7565-1.8425-1.7719-2.786-2.6619-.2336-.2207-.4648-.4487-.7058-.6612-.2515-.22147-.5297-.41282-.7634-.65466-.0884-.09201-.2361-.27685-.1055-.39329.1704-.15227.3359-.30943.5014-.46658.2077-.19705.4194-.39004.6352-.57732.1745-.15145.4333-.14657.6044.00896l3.8325 3.45579c.1501.1351.1947.3534.1095.5374l.0017-.0008zm2.45 2.2148c-.0308.0489-.0714.0822-.1176.1059-.1339.0667-.2994.0382-.4438.0374-.2344-.0024-.4697-.0049-.7042-.0049-.3358 0-.5581-.3493-.417-.6555l.2093-.4519c.1298-.2809.4941-.3558.7237-.149.1201.1083.241.2174.361.3257.1331.1197.559.3607.5233.548-.0162.0823-.0917.1759-.1355.2451l.0008-.0008z" fill="url(#paint0_linear_1192_6893)"/><path d="M60.8942 12.7165c0-.1189.0389-.2207.1176-.3062.0787-.0855.1834-.1286.3148-.1286h.993c.1176 0 .2263.039.3245.118.0982.079.1477.1841.1477.316v13.7864c0 .2899-.1574.434-.4722.434h-.993c-.2888 0-.4324-.1449-.4324-.434v-6.3358h-8.2889v6.3358c0 .2899-.1573.434-.4721.434h-.993c-.2888 0-.4324-.1449-.4324-.434V12.7165c0-.1189.0389-.2207.1176-.3062.0787-.0855.1833-.1286.3148-.1286h1.0125c.1176 0 .2231.0431.3147.1286.0917.0855.1379.1873.1379.3062v5.5362h8.2889v-5.5362zM66.1147 12.7165c0-.1189.0374-.2207.1128-.3062.0755-.0855.1817-.1286.3197-.1286h1.0222c.1176 0 .2231.039.3147.118.0917.079.138.1841.138.316v13.7864c0 .2899-.1509.434-.4527.434h-1.0222c-.2889 0-.4325-.1449-.4325-.434V12.7165zM81.2272 20.8975c0-.2891.1444-.434.4324-.434h1.0125c.1176 0 .2231.0382.3148.1132.0916.0757.1379.1823.1379.3208v4.4117c0 .079-.0162.1531-.0495.2223-.0325.0692-.0884.127-.1671.1726l-.0787.0595c-.6166.4478-1.2948.7914-2.0355 1.0316-.7407.2403-1.5406.36-2.399.36-.6952 0-1.3621-.0888-2.0006-.2663-.6393-.1775-1.2356-.4308-1.7897-.7597-.5541-.329-1.0587-.7223-1.5138-1.1791-.4559-.4576-.8454-.9641-1.1699-1.5202-.3245-.5562-.5752-1.1547-.752-1.7963-.1769-.6417-.2653-1.311-.2653-2.008 0-.697.0884-1.355.2653-1.9934.1768-.6383.4291-1.2368.7569-1.7962.3278-.5594.7196-1.0692 1.1747-1.5301.4552-.4608.9606-.8549 1.5139-1.1839.5541-.329 1.1504-.5838 1.7897-.7646.6392-.1808 1.3061-.2712 2.0006-.2712.8064 0 1.5828.123 2.33.3697.7471.2467 1.4457.6001 2.0939 1.061.0722.0529.1314.1132.1768.1824.0455.0692.069.1401.069.2125 0 .092-.026.171-.0787.237l-.5209.8688c-.1119.158-.2263.237-.3439.237-.0463 0-.0966-.0114-.1526-.0342-.0559-.0228-.12-.0611-.1914-.1132-.4722-.3355-.9849-.6001-1.539-.7947-.5541-.1938-1.1455-.2916-1.7751-.2916-.8129 0-1.5649.1548-2.2561.4642-.6921.3094-1.2916.7239-1.7995 1.2434-.5078.5195-.9062 1.1188-1.195 1.7963-.2888.6774-.4324 1.385-.4324 2.122 0 .7833.1477 1.5145.4422 2.196.2953.6808.6944 1.2728 1.1998 1.7768.5047.5032 1.0928.8998 1.7646 1.1888.6717.2899 1.3881.434 2.1482.434.4787 0 .9549-.0773 1.4303-.232.4754-.1548.9589-.3371 1.4506-.548v-3.5625l.0016-.0024zM96.2708 12.7165c0-.1189.0389-.2207.1176-.3062.0787-.0855.1833-.1286.3148-.1286h.993c.1176 0 .2263.039.3245.118.0982.079.1476.1841.1476.316v13.7864c0 .2899-.1573.434-.4721.434h-.993c-.2888 0-.4324-.1449-.4324-.434v-6.3358h-8.2889v6.3358c0 .2899-.1574.434-.4721.434h-.993c-.2888 0-.4324-.1449-.4324-.434V12.7165c0-.1189.0389-.2207.1176-.3062.0787-.0855.1833-.1286.3148-.1286h1.0124c.1177 0 .2231.0431.3148.1286.0917.0855.1379.1873.1379.3062v5.5362h8.2889v-5.5362zM117.715 12.2825c.302 0 .453.1579.453.4739v.9771c0 .1254-.038.2337-.113.3257-.075.092-.195.1384-.358.1384h-7.926v4.0559h6.234c.118 0 .22.0342.305.1034.085.0693.128.1857.128.3502v1.0064c0 .1181-.036.2239-.108.316-.072.092-.18.1384-.324.1384h-6.234v4.8555h7.964c.302 0 .452.1547.452.4641v1.0162c0 .2899-.144.434-.432.434h-9.459c-.289 0-.432-.1384-.432-.4144V12.736c0-.3029.144-.4543.432-.4543h9.42l-.002.0008zM132.041 13.5161c.072.0529.131.1132.177.1824.045.0692.069.1401.069.2125 0 .092-.026.171-.079.237l-.521.8688c-.112.158-.226.237-.344.237-.046 0-.096-.0114-.152-.0342-.056-.0228-.12-.0611-.192-.1132-.472-.3355-.969-.592-1.489-.7695-.521-.1775-1.07-.2826-1.647-.316-.846 0-1.626.1531-2.341.4585-.715.3061-1.332.7174-1.854 1.2336-.52.5163-.929 1.1156-1.224 1.7963-.295.6807-.442 1.3997-.442 2.1562 0 .8029.151 1.5447.453 2.2254.302.6807.706 1.2678 1.214 1.7613.508.4934 1.098.8786 1.77 1.1546.672.276 1.379.4145 2.119.4145.269 0 .538-.0196.807-.0595.268-.0391.543-.1067.821-.2019.278-.0953.569-.2174.87-.3648.302-.1482.623-.3306.964-.548.124-.0725.227-.1083.305-.1083.118 0 .227.0822.325.2467l.56.9275c.046.0855.069.1644.069.2369 0 .158-.078.2826-.236.3754-.616.4478-1.295.798-2.035 1.0512-.741.2533-1.541.3803-2.399.3803-.695 0-1.362-.0888-2.001-.2663-.639-.1775-1.235-.4307-1.79-.7597-.554-.329-1.058-.7223-1.513-1.1791-.456-.4576-.846-.9641-1.17-1.5202-.325-.5562-.575-1.1546-.752-1.7963-.177-.6416-.266-1.311-.266-2.008 0-.697.089-1.3574.266-1.9982.177-.6417.429-1.2418.757-1.8012.327-.5594.719-1.0691 1.174-1.53.456-.4601.963-.8534 1.52-1.1791s1.155-.5789 1.794-.7597c.64-.1807 1.307-.2711 2.001-.2711.819 0 1.596.1221 2.33.3648.734.2434 1.429.5985 2.084 1.0658l-.002-.0024zM145.059 12.7165c0-.1189.039-.2207.118-.3062.079-.0855.183-.1286.315-.1286h.993c.118 0 .226.039.324.118.099.079.148.1841.148.316v13.7864c0 .2899-.157.434-.472.434h-.993c-.289 0-.433-.1449-.433-.434v-6.3358h-8.288v6.3358c0 .2899-.158.434-.473.434h-.993c-.288 0-.432-.1449-.432-.434V12.7165c0-.1189.039-.2207.118-.3062.078-.0855.183-.1286.314-.1286h1.013c.118 0 .223.0431.315.1286.091.0855.138.1873.138.3062v5.5362h8.288v-5.5362zM160.142 12.2825c.302 0 .453.1579.453.4739v.9771c0 .1254-.039.2337-.113.3257-.076.092-.196.1384-.359.1384h-7.925v4.0559h6.234c.117 0 .22.0342.305.1034.085.0693.128.1857.128.3502v1.0064c0 .1181-.037.2239-.108.316-.072.092-.18.1384-.324.1384h-6.234v4.8555h7.964c.302 0 .452.1547.452.4641v1.0162c0 .2899-.145.434-.433.434h-9.458c-.289 0-.433-.1384-.433-.4144V12.736c0-.3029.145-.4543.433-.4543h9.42l-.002.0008zM171.921 25.0226c.117 0 .22.0415.305.1237.085.0823.128.1963.128.3404v1.0162c0 .1189-.039.2207-.118.3062-.078.0855-.183.1286-.314.1286h-8.358c-.289 0-.433-.1449-.433-.434V12.7165c0-.1189.039-.2207.118-.3062.079-.0855.19-.1286.334-.1286h1.013c.124 0 .228.0366.31.1083.082.0724.122.1807.122.3257v12.3061h6.893v.0008zM181.212 12.0846c.688 0 1.352.0888 1.991.2663.64.1775 1.236.4307 1.79.7597s1.06.7223 1.52 1.1791c.458.4576.85.9673 1.174 1.53.325.5626.577 1.166.757 1.8109.18.6449.27 1.3159.27 2.0129 0 .697-.088 1.3566-.265 1.9982-.177.6417-.429 1.2402-.757 1.7963-.328.5562-.719 1.0626-1.175 1.5203-.456.4576-.962.8484-1.519 1.1741-.557.3257-1.157.5773-1.8.7549-.642.1775-1.311.2662-2.005.2662s-1.362-.0887-2.001-.2662c-.639-.1776-1.235-.4308-1.789-.7598-.554-.3289-1.059-.7222-1.514-1.179-.456-.4576-.845-.9641-1.17-1.5203-.325-.5561-.575-1.1546-.752-1.7963-.177-.6416-.265-1.3109-.265-2.0079 0-.6971.088-1.3574.265-1.9983.177-.6408.429-1.2417.757-1.8011.328-.5594.719-1.0692 1.175-1.5301.456-.46.962-.8533 1.519-1.179.557-.3257 1.155-.579 1.795-.7597.639-.1808 1.306-.2712 2-.2712h-.001zm-5.623 7.51c0 .5195.067 1.0179.201 1.495.135.4772.323.9242.565 1.342.243.4177.534.798.876 1.1399.34.342.719.6352 1.136.8786.416.2435.861.4324 1.336.5676.476.1352.972.2027 1.49.2027s1.006-.0675 1.485-.2027c.478-.1344.924-.3241 1.337-.5676.413-.2434.79-.5357 1.131-.8786.34-.3419.632-.7222.875-1.1399.243-.4178.431-.8648.565-1.342.135-.4771.202-.9755.202-1.495 0-.776-.148-1.5047-.443-2.1855-.295-.6807-.694-1.2743-1.199-1.7816-.505-.5065-1.096-.9079-1.776-1.2043-.678-.2964-1.404-.4438-2.178-.4438-.517 0-1.014.0676-1.489.202-.476.1351-.921.324-1.337.5675-.416.2435-.795.5366-1.136.8786-.341.342-.633.7206-.875 1.1351-.243.4145-.431.8623-.566 1.3419-.135.4804-.201.9771-.201 1.4901h.001zM202.48 26.9377c-.144 0-.268-.0724-.374-.2174l-8.584-11.5463v11.3289c0 .2899-.151.434-.452.434h-.993c-.289 0-.432-.1449-.432-.434V12.736c0-.1319.039-.2402.117-.3257.079-.0855.184-.1286.315-.1286h1.318c.17 0 .308.0724.413.2174l8.367 11.1612v-11.013c.039-.2435.183-.3648.432-.3648h.993c.118 0 .228.0391.33.118.101.079.152.1841.152.316v13.7864c0 .2899-.16.434-.482.434h-1.121l.001.0008z" fill="#152636"/><defs><linearGradient id="paint0_linear_1192_6893" x1="7.76752" y1="35.835" x2="42.2578" y2="35.835" gradientUnits="userSpaceOnUse"><stop stop-color="#D2B15E"/><stop offset="1" stop-color="#CB9636"/></linearGradient></defs></svg>