<svg width="77" height="20" viewBox="0 0 77 20" fill="none" xmlns="http://www.w3.org/2000/svg"><path fill-rule="evenodd" clip-rule="evenodd" d="M12.2245 6.37982l-.8251 1.577.0005-.0022-.8506-1.57699c-.0258-.04995-.0927-.11225-.1848.0007l.001-.00125c-.2246.25233-.50862.44877-.82807.57282-.31944.12405-.665.17207-1.00762.14003-.34261-.03205-.67227-.14322-.96124-.32417-.28898-.18095-.52882-.42639-.69937-.71568-.17055-.28929-.26681-.61397-.2807-.94674-.01389-.33278.05501-.66391.2009-.96557.14588-.30165.3645-.565.63745-.7679.27296-.20291.59228-.33943.93111-.3981l-.0743.00933c-.57221-.42306-1.00662-.45598-1.12684-.40111-1.65653.71772-2.01211 2.84672-.06409 4.93841.00695.00968.01049.02126.01011.03304-.00039.01178-.00469.02313-.01226.03236-.00757.00923-.01801.01586-.02978.01891-.01176.00304-.02423.00234-.03555-.00201-2.6824-1.35259-2.23783-4.0841-2.0237-5.39975.05012-.30793.08761-.53831.06943-.65528-.06783-.44052-.32903-.849923-.50951-1.132799C4.51714.343398 4.47769.281556 4.44716.22876 4.43305.204688 4.42594.177365 4.4266.149697c.00066-.027668.00906-.054646.0243-.078064.01524-.023418.03676-.0424.06227-.054926.0255-.012527.05404-.01813.08258-.016211.24792.01522.6749.273569 1.25023.621679C7.09596 1.37849 9.04619 2.55851 11.3818 2.58932 13.718 2.5585 15.6691 1.37789 16.919.621602c.5749-.347821 1.0014-.605895 1.2488-.621106.0293-.002282.0586.003343.0847.016245.0261.012901.048.032573.0632.056819.0153.024246.0233.052111.0231.080485-.0002.028375-.0085.056142-.0241.080202-.0296.050928-.0678.11065-.1107.177799-.1803.28229-.4444.695844-.5131 1.139114-.018.11612.0193.34533.0693.65197.2139 1.31322.6592 4.04657-2.023 5.39977-.0113.00434-.0238.00505-.0356.002-.0117-.00304-.0222-.00967-.0297-.0189-.0076-.00924-.0119-.02058-.0123-.03236-.0004-.01178.0032-.02337.0101-.03305 1.948-2.09114 1.5925-4.22014-.0641-4.9384-.1202-.05213-.5546-.02195-1.1268.4011l-.0295-.00384c.3367.06337.6528.20376.922.40944.2691.20568.4835.47069.6252.77289.1418.30221.2067.63283.1895.96427-.0173.33144-.1163.65407-.2887.94095-.1724.28689-.4133.5297-.7024.70815-.2892.17846-.6183.28738-.9599.31768-.3415.03029-.6856-.01892-1.0035-.14353-.3179-.12461-.6004-.321-.8238-.57277l.0074.00768c-.0936-.11797-.1651-.05322-.1906-.00439zM9.47571 3.91799c-.28141-.15311-.60491-.21817-.92607-.18625-.35772.03555-.69183.18931-.94606.43539-.25422.24607-.413.56941-.4496.91554-.03285.31075.03452.62373.19287.89595.15835.27222.39992.49034.69153.6244.2916.13406.61895.17749.93709.12433.31814-.05316.61148-.20031.83972-.42124.22821-.22093.38021-.5048.43501-.81264.0548-.30784.0098-.62456-.1289-.90665-.13865-.28209-.36418-.51573-.64559-.66883zm5.90079 2.05836c.1579-.27255.2246-.58569.1911-.89643-.0373-.34584-.1967-.66869-.4512-.91422-.2545-.24553-.5886-.39878-.9461-.43396-.3213-.03152-.6447.03397-.926.18747-.2812.1535-.5064.38748-.6447.66981-.1382.28232-.1828.59914-.1275.90695.0553.3078.2078.59148.4364.81208.2287.2206.5223.36729.8406.41994.3183.05264.6456.00865.937-.12594.2914-.13458.5326-.35316.6904-.6257zM7.12697 19.1068c.6534.2807 1.33409.4976 2.03196.6475.34896-1.232.81996-2.4287 1.40647-3.5732 1.1458-2.2268 2.7083-4.2288 4.6083-5.9047h-3.0091c-1.5906 1.7031-2.89809 3.6349-3.87562 5.7264l-.03743.0828c-.45013.9794-.82598 1.9891-1.12458 3.0212zm.06352-4.3951c.40296-.796.85188-1.5695 1.34462-2.3167h-.00454c-.73388-.5228-1.2651-1.2688-1.50851-2.1186H4.19841c.14792.9015.49091 1.7625 1.00653 2.5268.51561.7643 1.19222 1.4146 1.98555 1.9085zm2.15607-3.4766l.00292.0021h-.00454l.00162-.0021zm.76054-.9587c-.26328.3132-.5168.6327-.76054.9587-.34064-.2523-.61224-.5814-.79104-.9587h1.55158zm-7.4983 0H.708984c.120875 1.6342.636406 3.2182 1.505146 4.6246.86873 1.4063 2.06643 2.5958 3.49677 3.4728.2348-.7683.51002-1.5245.82458-2.2657-1.06668-.6226-1.97398-1.4706-2.65398-2.4805-.68-1.0099-1.11509-2.1555-1.2727-3.3512zm9.3602 6.5796c-.5133 1.0003-.931 2.0439-1.2477 3.1178.2564.0179.5146.0269.7747.0269.4959-.0001.9912-.0331 1.4824-.0988.7151-2.0871 1.8554-4.0143 3.3535-5.6677 1.4981-1.6534 3.3237-2.9994 5.3687-3.9583h-4.073c-2.3887 1.7385-4.3261 3.9914-5.6586 6.5801zm10.0849-5.0536c-3.2953 1.64-5.8705 4.3727-7.2551 7.6984v.0006c1.7971-.5617 3.4116-1.5674 4.684-2.9176 1.2723-1.3502 2.1586-2.9983 2.5711-4.7814zm28.242 2.9577c.7432.2054 1.5102.308 2.301.308.9146 0 1.6912-.1353 2.3295-.406.6384-.2706 1.1148-.6346 1.4292-1.092.324-.4666.4859-.98.4859-1.54 0-.6533-.1762-1.1713-.5288-1.554-.343-.3826-.7574-.66264-1.2433-.83997-.486-.17733-1.11-.35467-1.8723-.532-.7336-.15867-1.2815-.31733-1.6435-.476-.3526-.168-.5288-.42-.5288-.756s.1524-.60667.4573-.812c.3144-.20533.7956-.308 1.4435-.308.9242 0 1.8484.25667 2.7726.77l.7146-1.722c-.4574-.28-.9909-.49467-1.6007-.644-.6098-.14933-1.2339-.224-1.8722-.224-.9147 0-1.6912.13533-2.3296.406-.6288.27067-1.1005.63933-1.4149 1.106-.3144.45733-.4716.97067-.4716 1.54 0 .65333.1715 1.176.5145 1.568.3525.392.7718.67667 1.2577.85397.4859.1774 1.11.3547 1.8722.532.4955.112.8861.2147 1.1719.308.2954.0934.5336.2194.7146.378.1906.1494.2859.3407.2859.574 0 .3174-.1573.574-.4717.77-.3144.1867-.8003.28-1.4577.28-.5908 0-1.1815-.0933-1.7722-.28-.5907-.1866-1.1005-.434-1.5292-.742l-.7861 1.708c.4478.336 1.0385.6114 1.7722.826zM37.3544 5.10013v9.79997h-1.9008l-4.9878-5.94997v5.94997h-2.2867V5.10013h1.9151l4.9736 5.94997V5.10013h2.2866zm10.1132 7.97997v1.82h-7.7462V5.10013h7.5604v1.82h-5.2594v2.128h4.6448v1.76397h-4.6448v2.268h5.4452zm12.8887-6.13197h-3.2014v-1.848h8.7181v1.848h-3.2014v7.95197h-2.3153V6.94813zM71.3986 5h-3.3603v.82892h1.1995V9h.9528V5.82892h1.208V5zm3.9047 1.71566L75.3118 9h.8933l-.017-4h-.7742l-1.3781 2.40964L72.6236 5h-.7826v4h.8932V6.77349l1.0719 1.81205h.4254l1.0718-1.86988z" fill="#E6E6E6"/></svg>