<svg width="24" height="25" viewBox="0 0 24 25" fill="none" xmlns="http://www.w3.org/2000/svg"><path d="M18.997 20.5c-8.531.012-15.00599-6.54-14.99699-14.997 0-.553.448-1.003 1-1.003h2.64c.495 0 .916.364.989.854a12.416898 12.416898 0 001.015 3.397l.103.222a.70697.70697 0 01.04208.47743.706995.706995 0 01-.27208.39457c-.818.584-1.13 1.759-.493 2.675.80198 1.1533 1.80299 2.1546 2.95599 2.957.917.636 2.092.324 2.675-.493.0957-.1343.2354-.2309.3948-.273.1594-.0422.3286-.0274.4782.042l.221.102c1.078.5 2.222.842 3.397 1.016.49.073.854.494.854.99V19.5c0 .1314-.0259.2615-.0762.3829-.0503.1214-.1241.2317-.217.3246-.093.0928-.2034.1665-.3248.2167-.1214.0502-.2516.0759-.383.0758h-.002z" fill="#fff"/></svg>