<svg width="116" height="98" viewBox="0 0 116 98" fill="none" xmlns="http://www.w3.org/2000/svg"><path d="M70.0473 98.0002L24.9236 49.0675 70.0473.000014 115.171 49.0675 70.0473 98.0002z" fill="#DCE5E4"/><path d="M45.1234 98.0002L-.000205 49.0675 45.1234.000014 90.2471 49.0675 45.1234 98.0002z" fill="#F1F9F5"/><path d="M49.25 44.7778L45 46.8889m0 0l-4.25-2.1111M45 46.8889v5.2778m17-13.7223l-4.25 2.1112M62 38.4444l-4.25-2.1111M62 38.4444v5.2778M49.25 32.1111L45 30l-4.25 2.1111M28 38.4444l4.25-2.1111M28 38.4444l4.25 2.1112M28 38.4444v5.2778M45 68l-4.25-2.1111M45 68l4.25-2.1111M45 68v-5.2778m-12.75-1.0555L28 59.5556v-5.2778m29.75 7.3889L62 59.5556v-5.2778" stroke="#6ABC44" stroke-width="4" stroke-linecap="round" stroke-linejoin="round"/></svg>