<svg width="116" height="98" viewBox="0 0 116 98" fill="none" xmlns="http://www.w3.org/2000/svg"><path d="M70.0473 98.0002L24.9236 49.0675 70.0473.000014 115.171 49.0675 70.0473 98.0002z" fill="#DCE5E4"/><path d="M45.1234 98.0002L-.000205 49.0675 45.1234.000014 90.2471 49.0675 45.1234 98.0002z" fill="#F1F9F5"/><path d="M49.1583 31.3475C48.1378 30.4777 46.8409 30 45.5 30s-2.6378.4777-3.6583 1.3475l-2.3894 2.0378a1.88029 1.88029 0 01-1.0716.4437l-3.13.2481c-1.3363.1071-2.5907.6865-3.5384 1.6346-.9477.9481-1.5267 2.2027-1.6333 3.539l-.25 3.1319c-.0317.3944-.1869.7687-.4437 1.0697l-2.0378 2.3894C26.4777 46.8622 26 48.1591 26 49.5s.4777 2.6378 1.3475 3.6583l2.0378 2.3894c.2571.3015.4124.6765.4437 1.0716l.25 3.13c.107 1.336.6862 2.5902 1.6339 3.5378.9476.9477 2.2018 1.5269 3.5378 1.6339l3.1319.25c.3948.032.7689.188 1.0697.4437l2.3894 2.0378C42.8622 68.5223 44.1591 69 45.5 69s2.6378-.4777 3.6583-1.3475l2.3894-2.0378c.3008-.2557.6768-.4117 1.0716-.4437l3.13-.25c1.336-.107 2.5902-.6862 3.5378-1.6339.9477-.9476 1.5269-2.2018 1.6339-3.5378l.25-3.1319c.0317-.3944.1869-.7687.4437-1.0697l2.0378-2.3894C64.5223 52.1378 65 50.8409 65 49.5s-.4777-2.6378-1.3475-3.6583l-2.0378-2.3894a1.88029 1.88029 0 01-.4437-1.0716l-.25-3.13c-.1066-1.3363-.6856-2.5909-1.6333-3.539-.9477-.9481-2.2021-1.5275-3.5384-1.6346l-3.1319-.2481c-.3944-.0317-.7687-.1869-1.0697-.4437l-2.3894-2.0378zm-4.8802 2.8631c.3402-.2902.7728-.4497 1.22-.4497.4473 0 .8798.1595 1.2201.4497l2.3912 2.036c.9033.7696 2.0262 1.2347 3.2091 1.3291l3.13.25c.4457.0352.8642.2281 1.1805.544.3162.316.5096.7343.5453 1.1799l.25 3.1319c.0944 1.1829.5595 2.3058 1.3291 3.2091l2.036 2.3893c.2902.3403.4497.7729.4497 1.2201 0 .4472-.1595.8798-.4497 1.2201l-2.036 2.3893c-.7696.9033-1.2347 2.0262-1.3291 3.2091l-.25 3.13c-.0353.446-.2284.8647-.5448 1.181-.3163.3164-.735.5095-1.181.5448l-3.13.25c-1.1829.0944-2.3058.5595-3.2091 1.3291l-2.3893 2.036c-.3403.2902-.7729.4497-1.2201.4497-.4472 0-.8798-.1595-1.2201-.4497l-2.3893-2.036c-.9033-.7696-2.0262-1.2347-3.2091-1.3291l-3.1319-.25c-.4456-.0357-.8639-.2291-1.1799-.5453-.3159-.3163-.5088-.7348-.544-1.1805l-.25-3.13c-.0944-1.1829-.5595-2.3058-1.3291-3.2091l-2.036-2.3893c-.2902-.3403-.4497-.7729-.4497-1.2201 0-.4472.1595-.8798.4497-1.2201l2.036-2.3893c.7696-.9033 1.2347-2.0262 1.3291-3.2091l.25-3.1319c.0357-.4453.2287-.8634.5446-1.1793.3159-.3159.734-.5089 1.1793-.5446l3.1319-.25c1.1829-.0944 2.3058-.5595 3.2091-1.3291l2.3893-2.036h-.0018zm8.1889 12.8587c.3424-.3546.5319-.8295.5276-1.3224-.0043-.4929-.202-.9644-.5505-1.3129-.3486-.3486-.8201-.5463-1.313-.5506-.4929-.0043-.9678.1852-1.3223.5277l-6.1887 6.1905-2.4308-2.4307a1.878132 1.878132 0 00-.6102-.4213 1.88055 1.88055 0 00-.7256-.1526c-.2496-.0021-.4972.0454-.7282.14-.2311.0945-.441.2341-.6175.4106a1.87972 1.87972 0 00-.4106.6174c-.0945.2311-.1421.4786-.1399.7282.0022.2496.054.4963.1525.7257.0986.2293.2418.4368.4213.6102l3.7599 3.7598c.3525.3525.8306.5505 1.3291.5505.4985 0 .9765-.198 1.3291-.5505l7.5197-7.5196h-.0019z" fill="#6ABC44"/></svg>