<svg width="116" height="98" viewBox="0 0 116 98" fill="none" xmlns="http://www.w3.org/2000/svg"><path d="M70.0473 98.0002L24.9236 49.0675 70.0473.000014 115.171 49.0675 70.0473 98.0002z" fill="#DCE5E4"/><path d="M45.1234 98.0002L-.000202 49.0675 45.1234.000011 90.2471 49.0675 45.1234 98.0002z" fill="#F1F9F5"/><path d="M66.6879 47.2199l-4.2253-8.1976c-.336-.6447-.9071-1.1312-1.5918-1.3557-.6847-.2244-1.4289-.1693-2.0741.1539l-3.9997 2.026h-2.8154l-5.6691-2.599c-.5979-.2738-1.2727-.3222-1.9026-.1363l-8.3623 2.4699-3.8442-1.9472c-.6452-.3229-1.3893-.378-2.074-.1535-.6847.2244-1.2559.7107-1.592 1.3553l-4.2253 8.1977c-.1689.3279-.2717.6865-.3024 1.055-.0306.3685.0114.7396.1238 1.0914.1124.3519.2928.6775.5308.958.2379.2805.5286.5101.8551.6755l4.1234 2.0887 9.2824 7.3537c.3031.2407.653.4138 1.0268.5079l9.9575 2.5222c.216.0546.4379.0822.6606.0821.7307.0001 1.4317-.2927 1.95-.8146l6.322-6.405c.0069-.0068.0127-.0143.0192-.0211l.0256-.0279c.0093-.0104.0189-.0201.028-.0308l2.5681-3.0436 3.9976-2.025c.3265-.1654.6172-.3951.8551-.6756.238-.2804.4184-.6061.5308-.958.1124-.3519.1544-.7229.1238-1.0914-.0307-.3685-.1335-.7272-.3024-1.055zm-9.0369 6.0605l-6.532-4.8127c-.2377-.1752-.5246-.2685-.8185-.2663-.2939.0021-.5794.0998-.8146.2785l-2.1991 1.671c-.7151.5389-1.5827.83-2.474.83-.8914 0-1.7589-.2911-2.4741-.83l-.9312-.7078 6.7236-6.8118h3.5468l.0063.0003.0047-.0003h2.5994l4.6825 9.0849-1.3198 1.5642zM30.9743 40.1247l3.0386 1.5393-4.2253 8.1976-3.0387-1.5392 4.2254-8.1977zM50.5762 60.584l-9.9574-2.5221-8.4899-6.7257 4.6793-9.079 8.3712-2.4723 1.3229.6064a2.79981 2.79981 0 00-.3151.2709l-6.7237 6.8118c-.2784.2821-.4938.6216-.6315.9954-.1377.3738-.1945.7732-.1666 1.1712.0279.398.1399.7853.3284 1.1356.1885.3503.4491.6555.7642.8949l.9314.7074c1.1918.8984 2.6378 1.3835 4.1234 1.3835 1.4855 0 2.9315-.4851 4.1234-1.3835l1.387-1.0538 5.4377 4.0065-5.1847 5.2528zm13.6749-12.0751l-3.0387 1.5394-4.2253-8.1978 3.0388-1.5391 4.2268 8.1967-.0016.0008zM44.0843 65.945c-.0436.1775-.1213.3446-.2287.4916-.1074.147-.2423.2711-.3971.3652-.1548.0941-.3264.1564-.505.1832-.1786.0268-.3607.0176-.5357-.0269l-5.1783-1.3114c-.4201-.1071-.8095-.3126-1.1369-.6l-3.8744-3.4121c-.2735-.2427-.4408-.5853-.4655-.9528-.0246-.3675.0954-.7299.3339-1.0079s.576-.449.9387-.4754c.3626-.0265.7208.0937.9962.3342l3.8747 3.4121 5.1783 1.3117c.3536.0895.6576.3177.8451.6344.1876.3166.2433.6957.1549 1.054l-.0002.0001z" fill="#6ABC44"/></svg>